<svg width="17" height="13" viewBox="0 0 17 13" fill="none" xmlns="http://www.w3.org/2000/svg">
<path d="M13.0384 1.39209L8.54807 4.89641L3.95508 1.39209V1.39304L3.96063 1.39777V6.30476L8.49628 9.88485L13.0384 6.44304V1.39209Z" fill="#F44336"/>
<path d="M14.2176 0.539789L13.0383 1.39219V6.44314L16.749 3.59423V1.87806C16.749 1.87806 16.2986 -0.573068 14.2176 0.539789Z" fill="#FDD835"/>
<path d="M13.0383 6.44315V12.9943H15.8824C15.8824 12.9943 16.6916 12.911 16.7499 11.9885V3.59424L13.0383 6.44315Z" fill="#43A048"/>
<path d="M3.96084 12.9999V6.30478L3.95508 6.30005L3.96084 12.9999Z" fill="#F44336"/>
<path d="M3.9551 1.39315L2.78234 0.54549C0.701345 -0.567367 0.25 1.88281 0.25 1.88281V3.59898L3.9551 6.30014V1.39315Z" fill="#B71B1C"/>
<path d="M3.95508 1.39307V6.30006L3.96084 6.30479V1.3978L3.95508 1.39307Z" fill="#F44336"/>
<path d="M0.25 3.59985V11.9941C0.307343 12.9175 1.11754 12.9999 1.11754 12.9999H3.96158L3.9551 6.30007L0.25 3.59985Z" fill="#304FFE"/>
</svg>
